<?xml version="1.0" encoding="UTF-8"?>
<svg id="katman_2" data-name="katman 2" xmlns="http://www.w3.org/2000/svg" xmlns:xlink="http://www.w3.org/1999/xlink" viewBox="0 0 128 128">
  <defs>
    <style>
      .cls-1 {
        fill: #4a148c;
      }

      .cls-1, .cls-2, .cls-3 {
        fill-rule: evenodd;
      }

      .cls-4, .cls-5 {
        fill: #fff;
      }

      .cls-2 {
        fill: url(#Adsız_degrade_2);
      }

      .cls-5 {
        opacity: 0;
      }

      .cls-3 {
        fill: url(#Adsız_degrade_3);
      }
    </style>
    <linearGradient id="Adsız_degrade_3" data-name="Adsız degrade 3" x1="-83.55" y1="589.05" x2="-82.66" y2="591.02" gradientTransform="translate(1820.16 12674.07) scale(21.33 -21.33)" gradientUnits="userSpaceOnUse">
      <stop offset="0" stop-color="#4527a0"/>
      <stop offset="1" stop-color="#a0f"/>
    </linearGradient>
    <linearGradient id="Adsız_degrade_2" data-name="Adsız degrade 2" x1="-82.47" y1="590.54" x2="-81.14" y2="592.63" gradientTransform="translate(1820.16 12674.07) scale(21.33 -21.33)" gradientUnits="userSpaceOnUse">
      <stop offset="0" stop-color="#a0f"/>
      <stop offset="1" stop-color="#e040fb"/>
    </linearGradient>
  </defs>
  <g id="katman_1" data-name="katman 1">
    <rect class="cls-5" width="128" height="128"/>
    <path id="path2" class="cls-3" d="M88.07,100.1v-48.13c0-9.97-8.08-18.05-18.05-18.05h-36.1c-9.97,0-18.05,8.08-18.05,18.05v48.13c0,9.97,8.08,18.05,18.05,18.05h36.1c9.97,0,18.05-8.08,18.05-18.05Z"/>
    <path id="path6" class="cls-1" d="M33.92,33.92v48.13c0,9.97,8.08,18.05,18.05,18.05h36.1v-48.13c0-9.97-8.08-18.05-18.05-18.05h-36.1Z"/>
    <path id="path8" class="cls-2" d="M112.13,76.03V27.9c0-9.97-8.08-18.05-18.05-18.05h-36.1c-9.97,0-18.05,8.08-18.05,18.05v48.13c0,9.97,8.08,18.05,18.05,18.05h36.1c9.97,0,18.05-8.08,18.05-18.05Z"/>
    <g>
      <path class="cls-4" d="M65.12,69.11c-10.37,0-15.55-5.73-15.55-17.19,0-5.43,1.31-9.64,3.92-12.63,2.61-2.98,6.3-4.47,11.06-4.47,2.3,0,4.31.36,6.01,1.09,1.71.73,2.95,1.77,3.73,3.11l-3.48,3.45c-.7-1.06-1.6-1.89-2.69-2.47-1.09-.58-2.27-.87-3.54-.87-3.02,0-5.45,1.09-7.27,3.26-1.82,2.18-2.74,5.27-2.74,9.28,0,8.74,3.77,13.11,11.32,13.11,2.27,0,4.51-.47,6.72-1.41l1.08,4.13c-2.72,1.06-5.59,1.6-8.6,1.6Z"/>
      <path class="cls-4" d="M93.31,69.11c-10.37,0-15.55-5.73-15.55-17.19,0-5.43,1.31-9.64,3.92-12.63,2.61-2.98,6.3-4.47,11.06-4.47,2.3,0,4.31.36,6.01,1.09,1.71.73,2.95,1.77,3.73,3.11l-3.48,3.45c-.7-1.06-1.6-1.89-2.69-2.47-1.09-.58-2.27-.87-3.54-.87-3.02,0-5.45,1.09-7.27,3.26-1.82,2.18-2.74,5.27-2.74,9.28,0,8.74,3.77,13.11,11.32,13.11,2.27,0,4.51-.47,6.72-1.41l1.08,4.13c-2.72,1.06-5.59,1.6-8.6,1.6Z"/>
    </g>
  </g>
</svg>